HIERARCHY
ROOT Hips
{
	OFFSET 42.939301 -0.431047 100.051003
	CHANNELS 6 Xposition Yposition Zposition Xrotation Yrotation Zrotation
	JOINT spine
	{
		OFFSET 0.000000 -0.507025 8.817047
		CHANNELS 3 Xrotation Yrotation Zrotation
		JOINT spine1
		{
			OFFSET 0.000000 -0.000002 10.776604
			CHANNELS 3 Xrotation Yrotation Zrotation
			JOINT spine2
			{
				OFFSET 0.000000 -0.000002 10.325897
				CHANNELS 3 Xrotation Yrotation Zrotation
				JOINT Neck
				{
					OFFSET 0.000000 -1.263954 26.511002
					CHANNELS 3 Xrotation Yrotation Zrotation
					JOINT Head
					{
						OFFSET 0.000000 -0.000001 8.009659
						CHANNELS 3 Xrotation Yrotation Zrotation
						End Site
						{
							OFFSET 0.000000 6.393857 19.387894
						}
					}
				}
				JOINT RightShoulder
				{
					OFFSET -4.347950 0.605420 11.151199
					CHANNELS 3 Xrotation Yrotation Zrotation
					JOINT RightArm
					{
						OFFSET 0.000000 -0.000002 14.625793
						CHANNELS 3 Xrotation Yrotation Zrotation
						JOINT RightArmRoll
						{
							OFFSET 0.000000 -0.000001 7.383408
							CHANNELS 3 Xrotation Yrotation Zrotation
							JOINT RightForeArm
							{
								OFFSET 0.000000 -0.000003 21.505203
								CHANNELS 3 Xrotation Yrotation Zrotation
								JOINT RightForeArmRoll
								{
									OFFSET 0.000000 -0.000001 8.285324
									CHANNELS 3 Xrotation Yrotation Zrotation
									JOINT RightHand
									{
										OFFSET 0.000000 -0.000003 16.626801
										CHANNELS 3 Xrotation Yrotation Zrotation
										End Site
										{
											OFFSET 0.000000 0.000000 0.100006
										}
									}
								}
							}
						}
					}
				}
				JOINT LeftShoulder
				{
					OFFSET 4.347950 0.605420 11.151199
					CHANNELS 3 Xrotation Yrotation Zrotation
					JOINT LeftArm
					{
						OFFSET 0.000000 -0.000002 14.625793
						CHANNELS 3 Xrotation Yrotation Zrotation
						JOINT LeftArmRoll
						{
							OFFSET 0.000000 -0.000001 7.383392
							CHANNELS 3 Xrotation Yrotation Zrotation
							JOINT LeftForeArm
							{
								OFFSET 0.000000 -0.000003 21.505203
								CHANNELS 3 Xrotation Yrotation Zrotation
								JOINT LeftForeArmRoll
								{
									OFFSET 0.000000 -0.000001 8.285324
									CHANNELS 3 Xrotation Yrotation Zrotation
									JOINT LeftHand
									{
										OFFSET 0.000000 -0.000003 16.626801
										CHANNELS 3 Xrotation Yrotation Zrotation
										End Site
										{
											OFFSET 0.000000 0.000000 0.100006
										}
									}
								}
							}
						}
					}
				}
			}
		}
	}
	JOINT RightUpLeg
	{
		OFFSET -7.815102 1.202170 -1.433090
		CHANNELS 3 Xrotation Yrotation Zrotation
		JOINT RightUpLegRoll
		{
			OFFSET 0.000000 -0.000003 19.495903
			CHANNELS 3 Xrotation Yrotation Zrotation
			JOINT RightLeg
			{
				OFFSET 0.000000 0.000004 -24.142700
				CHANNELS 3 Xrotation Yrotation Zrotation
				JOINT RightLegRoll
				{
					OFFSET 0.000000 -0.000004 24.221703
					CHANNELS 3 Xrotation Yrotation Zrotation
					JOINT RightFoot
					{
						OFFSET 0.000000 -0.000003 20.160500
						CHANNELS 3 Xrotation Yrotation Zrotation
						JOINT RightToeBase
						{
							OFFSET 0.000000 -0.000003 16.853195
							CHANNELS 3 Xrotation Yrotation Zrotation
							End Site
							{
								OFFSET 0.007145 0.940780 8.161865
							}
						}
					}
				}
			}
		}
	}
	JOINT LeftUpLeg
	{
		OFFSET 7.815102 1.202170 -1.433090
		CHANNELS 3 Xrotation Yrotation Zrotation
		JOINT LeftUpLegRoll
		{
			OFFSET 0.000000 -0.000003 19.496002
			CHANNELS 3 Xrotation Yrotation Zrotation
			JOINT LeftLeg
			{
				OFFSET 0.000000 -0.000004 24.142601
				CHANNELS 3 Xrotation Yrotation Zrotation
				JOINT LeftLegRoll
				{
					OFFSET 0.000000 -0.000004 24.445602
					CHANNELS 3 Xrotation Yrotation Zrotation
					JOINT LeftFoot
					{
						OFFSET 0.000000 -0.000003 19.936600
						CHANNELS 3 Xrotation Yrotation Zrotation
						JOINT LeftToeBase
						{
							OFFSET 0.000000 -0.000003 16.853195
							CHANNELS 3 Xrotation Yrotation Zrotation
							End Site
							{
								OFFSET -0.032013 0.940779 8.161865
							}
						}
					}
				}
			}
		}
	}
}
MOTION
Frames: 13
Frame Time: 0.041667
49.529198 -5.223319 99.936501 3.065785 -1.183045 3.539328 -1.840734 -0.141988 0.064014 0.324140 -0.291162 0.148577 1.969215 -0.289604 0.152069 31.074349 6.862532 -0.453184 11.613199 -1.356002 0.822650 -6.699473 -58.040666 -7.861122 -33.397726 -118.437925 -17.880599 0.000000 -0.000003 -0.000001 2.955387 -12.049924 -0.004637 -0.000002 0.000008 -3.011989 -5.000248 -7.998723 0.000155 -8.950407 62.126390 10.796485 -35.467045 114.019169 26.784360 0.000001 0.000004 0.000001 4.119760 10.608246 0.138466 -0.000000 -0.000002 3.003131 -5.000233 7.998774 -0.000146 -9.195538 -176.222022 -0.264056 -179.999991 0.000005 -0.911005 166.926285 -1.832281 -0.877413 -0.000003 -0.000003 0.164717 71.159602 6.340399 3.493093 25.456911 -7.348163 -0.000003 -7.486996 178.851864 3.833778 -0.000005 -0.000005 -0.944283 -9.007920 2.400312 0.587805 0.000000 -0.000004 -0.086818 69.600720 -6.397621 -3.398831 25.456921 7.355115 -0.000002 
49.530792 -5.231928 99.936905 3.080725 -1.180782 3.532146 -1.841114 -0.141798 0.065113 0.323185 -0.291082 0.148992 1.968255 -0.289521 0.152479 31.073266 6.871294 -0.451356 11.608009 -1.359593 0.826392 -6.689344 -58.038289 -7.849030 -33.386866 -118.462815 -17.919297 -0.000000 -0.000003 -0.000002 3.004058 -12.077771 0.001070 -0.000000 0.000008 -3.011989 -5.000250 -7.998723 0.000155 -8.961386 62.123166 10.809091 -35.465347 114.030316 26.802854 0.000002 0.000003 -0.000000 4.153826 10.617874 0.135908 -0.000001 -0.000002 3.003131 -5.000230 7.998776 -0.000147 -9.227797 -176.224358 -0.267292 -179.999991 0.000005 -0.909995 166.913281 -1.834127 -0.878281 -0.000003 -0.000003 0.164717 71.156030 6.340477 3.490509 25.456907 -7.348163 -0.000003 -7.517036 178.847001 3.828955 -0.000005 -0.000004 -0.944102 -9.024931 2.405868 0.588895 0.000000 -0.000004 -0.086818 69.600092 -6.397961 -3.396729 25.456923 7.355115 -0.000003 
49.519402 -5.222077 99.933395 3.095535 -1.178429 3.524714 -1.841546 -0.141616 0.066250 0.322139 -0.291021 0.149415 1.967215 -0.289459 0.152898 31.072180 6.879974 -0.449464 11.603224 -1.363123 0.830168 -6.679159 -58.036015 -7.836874 -33.376027 -118.487690 -17.957913 -0.000001 -0.000003 -0.000000 3.052358 -12.105611 0.006808 -0.000001 0.000008 -3.011991 -5.000250 -7.998720 0.000155 -8.972781 62.119806 10.822163 -35.465576 114.040807 26.822858 0.000001 0.000003 0.000001 4.186978 10.627113 0.133477 -0.000001 -0.000002 3.003130 -5.000233 7.998774 -0.000146 -9.259997 -176.226667 -0.270683 -179.999991 0.000005 -0.909995 166.900044 -1.836956 -0.878388 -0.000003 -0.000003 0.164717 71.152546 6.340491 3.487909 25.456912 -7.348162 -0.000004 -7.547076 178.842110 3.824056 -0.000005 -0.000004 -0.943936 -9.042384 2.411431 0.590006 0.000000 -0.000004 -0.086818 69.599737 -6.398215 -3.394695 25.456919 7.355116 -0.000002 
49.524395 -5.226134 99.934898 3.110254 -1.176016 3.517107 -1.841996 -0.141442 0.067412 0.321030 -0.290977 0.149844 1.966106 -0.289412 0.153324 31.071084 6.888584 -0.447531 11.598442 -1.366624 0.833962 -6.668957 -58.033850 -7.824725 -33.365385 -118.512648 -17.996698 -0.000000 -0.000003 -0.000001 3.100388 -12.133543 0.012584 -0.000002 0.000008 -3.011989 -5.000248 -7.998722 0.000155 -8.984464 62.116418 10.835584 -35.464036 114.053142 26.840422 0.000002 0.000003 -0.000000 4.219501 10.636057 0.131135 0.000000 -0.000002 3.003132 -5.000231 7.998775 -0.000146 -9.292164 -176.228989 -0.274175 -179.999991 0.000005 -0.909995 166.886725 -1.838799 -0.879267 -0.000003 -0.000003 0.164717 71.149159 6.340472 3.485198 25.456911 -7.348163 -0.000003 -7.577106 178.837247 3.819111 -0.000005 -0.000004 -0.943781 -9.060157 2.417010 0.591139 0.000000 -0.000004 -0.086818 69.599614 -6.398481 -3.392551 25.456919 7.355114 -0.000002 
49.532597 -5.225438 99.943001 3.124935 -1.173564 3.509395 -1.842474 -0.141271 0.068590 0.319884 -0.290939 0.150277 1.964956 -0.289375 0.153754 31.070001 6.897169 -0.445583 11.593859 -1.370105 0.837771 -6.658702 -58.031685 -7.812508 -33.355785 -118.536745 -18.036662 -0.000000 -0.000003 -0.000001 3.148273 -12.161466 0.018400 -0.000001 0.000009 -3.011990 -5.000253 -7.998723 0.000155 -8.996267 62.112934 10.849135 -35.463992 114.064726 26.859418 0.000001 0.000003 -0.000000 4.251657 10.644799 0.128845 0.000001 -0.000003 3.003130 -5.000231 7.998776 -0.000146 -9.324307 -176.232309 -0.277569 -179.999991 0.000005 -0.909995 166.873297 -1.840654 -0.880154 -0.000003 -0.000003 0.164718 71.145771 6.340457 3.482590 25.456912 -7.348162 -0.000003 -7.607136 178.831373 3.814265 -0.000005 -0.000004 -0.943632 -9.078113 2.422577 0.592280 0.000000 -0.000004 -0.086818 69.599593 -6.398756 -3.390302 25.456916 7.355115 -0.000002 
49.525196 -5.198818 99.938904 3.139608 -1.171121 3.501662 -1.842944 -0.141102 0.069771 0.318728 -0.290904 0.150712 1.963806 -0.289339 0.154185 31.069007 6.905731 -0.443634 11.589378 -1.373584 0.841585 -6.648463 -58.029506 -7.800316 -33.345206 -118.561675 -18.075394 -0.000001 -0.000003 -0.000001 3.196130 -12.189384 0.024263 -0.000001 0.000008 -3.011989 -5.000251 -7.998721 0.000156 -9.008129 62.109437 10.862753 -35.464162 114.076358 26.878565 0.000001 0.000003 -0.000000 4.283722 10.653440 0.126565 -0.000001 -0.000002 3.003130 -5.000229 7.998775 -0.000146 -9.356443 -176.234631 -0.281133 -179.999991 0.000005 -0.909995 166.859882 -1.842496 -0.881038 -0.000003 -0.000003 0.164717 71.142472 6.340410 3.479968 25.456907 -7.348162 -0.000004 -7.637166 178.826510 3.809290 -0.000005 -0.000004 -0.943485 -9.096116 2.428154 0.593429 -0.000000 -0.000004 -0.086818 69.599464 -6.399022 -3.388257 25.456921 7.355116 -0.000003 
49.512398 -5.196867 99.936989 3.154298 -1.168688 3.493980 -1.843414 -0.140930 0.070946 0.317592 -0.290866 0.151144 1.962665 -0.289299 0.154613 31.067918 6.914326 -0.441701 11.584686 -1.377067 0.845386 -6.638226 -58.027327 -7.788127 -33.334639 -118.586619 -18.114247 0.000001 -0.000003 -0.000001 3.244070 -12.217285 0.030175 -0.000002 0.000009 -3.011990 -5.000251 -7.998723 0.000155 -9.019903 62.105940 10.876268 -35.464118 114.087935 26.897608 0.000001 0.000004 0.000000 4.315974 10.662275 0.124238 0.000001 -0.000002 3.003130 -5.000230 7.998775 -0.000147 -9.388600 -176.236953 -0.284668 -179.999991 0.000005 -0.908997 166.846454 -1.845323 -0.881142 -0.000003 -0.000003 0.164717 71.139091 6.340422 3.477164 25.456912 -7.348163 -0.000004 -7.667196 178.821633 3.804343 -0.000005 -0.000004 -0.943335 -9.114030 2.433729 0.594577 0.000001 -0.000004 -0.086818 69.599423 -6.399259 -3.386103 25.456919 7.355116 -0.000002 
49.512497 -5.200197 99.938797 3.169050 -1.166304 3.486410 -1.843865 -0.140754 0.072101 0.316500 -0.290817 0.151572 1.961575 -0.289248 0.155038 31.066832 6.922954 -0.439778 11.580006 -1.380577 0.849174 -6.628029 -58.025155 -7.775973 -33.324093 -118.611549 -18.153120 0.000001 -0.000003 -0.000001 3.292222 -12.245171 0.036146 0.000001 0.000008 -3.011989 -5.000250 -7.998720 0.000155 -9.031472 62.102559 10.889552 -35.463664 114.099410 26.916500 0.000002 0.000002 -0.000000 4.348678 10.671201 0.121838 0.000000 -0.000002 3.003129 -5.000233 7.998775 -0.000146 -9.420765 -176.240245 -0.287959 -179.999991 0.000005 -0.908997 166.833121 -1.847164 -0.882025 -0.000003 -0.000003 0.164717 71.135614 6.340436 3.474565 25.456911 -7.348163 -0.000003 -7.697237 178.816757 3.799430 -0.000005 -0.000005 -0.943177 -9.131714 2.439296 0.595719 0.000000 -0.000004 -0.086818 69.599211 -6.399554 -3.383968 25.456916 7.355116 -0.000002 
49.523796 -5.196407 99.933990 3.183898 -1.164002 3.479045 -1.844284 -0.140570 0.073226 0.315481 -0.290751 0.151993 1.960555 -0.289181 0.155453 31.065753 6.931660 -0.437910 11.575015 -1.384138 0.852937 -6.617874 -58.022778 -7.763850 -33.313216 -118.636383 -18.191698 -0.000000 -0.000003 -0.000002 3.340703 -12.273045 0.042179 -0.000001 0.000008 -3.011990 -5.000251 -7.998720 0.000156 -9.042752 62.099308 10.902500 -35.462393 114.110666 26.935046 0.000001 0.000003 0.000000 4.382122 10.680608 0.119297 0.000000 -0.000002 3.003131 -5.000229 7.998774 -0.000147 -9.452980 -176.242581 -0.291287 -179.999991 0.000005 -0.908998 166.820008 -1.849021 -0.882906 -0.000003 -0.000003 0.164717 71.132138 6.340481 3.471871 25.456914 -7.348163 -0.000003 -7.727277 178.811894 3.794593 -0.000005 -0.000004 -0.943007 -9.149039 2.444855 0.596847 0.000000 -0.000004 -0.086818 69.598760 -6.399838 -3.381945 25.456921 7.355117 -0.000002 
49.522396 -5.194427 99.933899 3.198879 -1.161808 3.471958 -1.844644 -0.140376 0.074310 0.314562 -0.290663 0.152404 1.959635 -0.289090 0.155861 31.064575 6.940459 -0.436082 11.569738 -1.387750 0.856661 -6.607773 -58.020401 -7.751786 -33.302179 -118.661177 -18.230320 -0.000000 -0.000003 -0.000001 3.389627 -12.300802 0.048274 0.000000 0.000008 -3.011989 -5.000249 -7.998724 0.000157 -9.053561 62.096071 10.914909 -35.460310 114.121703 26.953361 0.000001 0.000003 0.000000 4.416576 10.690498 0.116585 0.000000 -0.000003 3.003130 -5.000230 7.998775 -0.000147 -9.485257 -176.244904 -0.294445 -179.999991 0.000005 -0.908997 166.806976 -1.851835 -0.884009 -0.000004 -0.000003 0.164717 71.128470 6.340586 3.469296 25.456909 -7.348163 -0.000003 -7.757328 178.807017 3.789831 -0.000005 -0.000004 -0.942819 -9.165872 2.450406 0.597955 0.000000 -0.000004 -0.086818 69.598118 -6.400143 -3.379737 25.456919 7.355115 -0.000002 
49.524696 -5.190140 99.927399 3.214031 -1.159744 3.465209 -1.844953 -0.140168 0.075342 0.313771 -0.290545 0.152801 1.958844 -0.288969 0.156255 31.063420 6.949387 -0.434331 11.564152 -1.391441 0.860345 -6.597731 -58.017710 -7.739762 -33.290803 -118.685875 -18.268656 -0.000000 -0.000003 -0.000001 3.439101 -12.328542 0.054443 -0.000001 0.000008 -3.011990 -5.000252 -7.998720 0.000156 -9.063821 62.093093 10.926684 -35.458299 114.131587 26.972649 0.000002 0.000002 -0.000001 4.452311 10.700962 0.113653 0.000000 -0.000002 3.003131 -5.000233 7.998773 -0.000147 -9.517603 -176.246242 -0.297549 -179.999991 0.000005 -0.908997 166.794162 -1.853693 -0.883885 -0.000003 -0.000003 0.164717 71.124706 6.340723 3.466832 25.456911 -7.348163 -0.000004 -7.787387 178.802140 3.785196 -0.000005 -0.000004 -0.942609 -9.182077 2.455941 0.599037 0.000000 -0.000004 -0.086818 69.597073 -6.400493 -3.377660 25.456921 7.355117 -0.000002 
49.497997 -5.106537 99.918404 3.229382 -1.157839 3.458874 -1.845193 -0.139943 0.076310 0.313134 -0.290392 0.153184 1.958215 -0.288811 0.156633 31.062273 6.958461 -0.432680 11.558074 -1.395224 0.863971 -6.587786 -58.014916 -7.727837 -33.278273 -118.711352 -18.305918 0.000000 -0.000003 -0.000001 3.489262 -12.356261 0.060695 -0.000001 0.000008 -3.011990 -5.000250 -7.998722 0.000156 -9.073405 62.090238 10.937671 -35.453340 114.141866 26.989822 0.000001 0.000002 0.000000 4.489595 10.712196 0.110456 -0.000001 -0.000002 3.003130 -5.000230 7.998774 -0.000147 -9.550029 -176.248578 -0.300225 -179.999991 0.000005 -0.908000 166.781731 -1.856511 -0.884970 -0.000003 -0.000003 0.164717 71.120765 6.340952 3.464295 25.456911 -7.348163 -0.000004 -7.817464 178.798274 3.780557 -0.000005 -0.000004 -0.942372 -9.197519 2.461462 0.600087 -0.000000 -0.000004 -0.086818 69.595598 -6.400854 -3.375710 25.456921 7.355117 -0.000002 
49.503098 -5.116317 99.922699 3.244982 -1.156124 3.453043 -1.845345 -0.139700 0.077202 0.312678 -0.290198 0.153549 1.957755 -0.288612 0.156995 31.060931 6.967718 -0.431116 11.551388 -1.399107 0.867531 -6.577939 -58.011822 -7.715997 -33.265238 -118.736678 -18.342724 0.000000 -0.000003 -0.000001 3.540222 -12.383759 0.067022 0.000000 0.000009 -3.011990 -5.000250 -7.998724 0.000155 -9.082179 62.087642 10.947740 -35.448064 114.150882 27.007891 0.000001 0.000003 -0.000000 4.528723 10.724395 0.106936 0.000000 -0.000002 3.003130 -5.000231 7.998774 -0.000147 -9.582587 -176.248933 -0.302926 -179.999991 0.000005 -0.908000 166.769491 -1.859344 -0.886054 -0.000003 -0.000003 0.164717 71.116551 6.341306 3.461895 25.456911 -7.348163 -0.000003 -7.847565 178.794395 3.776084 -0.000005 -0.000005 -0.942104 -9.212062 2.466957 0.601097 0.000000 -0.000004 -0.086818 69.593733 -6.401260 -3.373592 25.456919 7.355115 -0.000002 
